<svg width="46" height="59" viewBox="0 0 46 59" fill="none" xmlns="http://www.w3.org/2000/svg">
<path d="M23.0002 5.86665C22.7033 5.86665 22.4167 5.82138 22.147 5.73743V9.80413H23.8533V5.73743C23.5836 5.82149 23.2971 5.86665 23.0002 5.86665Z" fill="#135693"/>
<path d="M23 5.98118C24.6516 5.98118 25.9906 4.64225 25.9906 2.99059C25.9906 1.33893 24.6516 0 23 0C21.3483 0 20.0094 1.33893 20.0094 2.99059C20.0094 4.64225 21.3483 5.98118 23 5.98118Z" fill="#6BC1DD"/>
<g opacity="0.15">
<path opacity="0.15" d="M22.5267 2.99059C22.5267 1.78878 23.2359 0.753051 24.2587 0.277673C23.8759 0.099876 23.4498 0 23 0C21.3483 0 20.0094 1.339 20.0094 2.99059C20.0094 4.64219 21.3483 5.98107 23 5.98107C23.4498 5.98107 23.8759 5.88119 24.2587 5.7034C23.2359 5.22813 22.5267 4.1924 22.5267 2.99059Z" fill="#440075"/>
</g>
<path d="M42.062 14.4727H40.2985V30.7415H42.062C43.0288 30.7415 43.8199 29.9506 43.8199 28.9838V16.2304C43.8199 15.2637 43.0288 14.4727 42.062 14.4727Z" fill="#9EA7AF"/>
<path d="M5.70129 14.4724H3.82139C2.85459 14.4724 2.06366 15.2635 2.06366 16.2301V28.9834C2.06366 29.9502 2.85459 30.7412 3.82139 30.7412H5.70117L5.70129 14.4724Z" fill="#9EA7AF"/>
<path d="M6.9 52.0263H4.48432C3.6596 52.0263 2.89347 51.7758 2.25781 51.3466V57.0707C2.25781 57.7152 2.78518 58.2425 3.42971 58.2425H6.9C6.9 58.2425 6.9 52.0263 6.9 52.0263Z" fill="#C5CCD3"/>
<path d="M41.5155 52.0259H39.0999V58.2422H42.5702C43.2147 58.2422 43.7421 57.7148 43.7421 57.0703V51.3463C43.1063 51.7753 42.3402 52.0259 41.5155 52.0259Z" fill="#C5CCD3"/>
<path opacity="0.15" d="M4.71877 57.0705V52.0261H4.48432C3.6596 52.0261 2.89347 51.7755 2.25781 51.3463V57.0704C2.25781 57.7149 2.78518 58.2423 3.42971 58.2423H5.89066C5.24613 58.2424 4.71877 57.7151 4.71877 57.0705Z" fill="#440075"/>
<path d="M6.90003 43.0671H4.48435C2.28389 43.0671 0.5 44.851 0.5 47.0515V48.2234C0.5 50.4238 2.284 52.2076 4.48435 52.2076H6.89991L6.90003 43.0671Z" fill="#E6E9ED"/>
<path d="M41.5155 43.0664H39.0999V52.207H41.5155C43.7161 52.207 45.4998 50.4231 45.4998 48.2228V47.0509C45.4998 44.8502 43.7159 43.0664 41.5155 43.0664Z" fill="#E6E9ED"/>
<g opacity="0.15">
<path opacity="0.15" d="M3.31257 48.2228V47.0509C3.31257 44.8503 5.09646 43.0665 7.29691 43.0665H4.48435C2.28389 43.0665 0.5 44.8504 0.5 47.0509V48.2228C0.5 50.4232 2.284 52.207 4.48435 52.207H7.29691C5.09634 52.207 3.31257 50.4232 3.31257 48.2228Z" fill="#440075"/>
</g>
<path d="M26.8902 35.27H19.1106V38.1771H26.8902V35.27Z" fill="#9EA7AF"/>
<path opacity="0.15" d="M21.9455 35.27H19.1106V38.1771H21.9455V35.27Z" fill="#440075"/>
<path d="M32.151 40.9509V39.0598C32.151 38.504 31.6963 38.0492 31.1405 38.0492H14.5182C13.9622 38.0492 13.5074 38.504 13.5074 39.0598V40.9509H32.151Z" fill="#C5CCD3"/>
<path opacity="0.15" d="M17.0123 40.9509V39.0598C17.0123 38.504 17.4671 38.0492 18.0231 38.0492H14.5182C13.9622 38.0492 13.5074 38.504 13.5074 39.0598V40.9509H17.0123Z" fill="#440075"/>
<path d="M37.4556 40.7523H8.54385C7.57706 40.7523 6.78601 41.5434 6.78601 42.5102V58.2426H39.2134V42.5102C39.2134 41.5434 38.4225 40.7523 37.4556 40.7523Z" fill="#9EA7AF"/>
<g opacity="0.15">
<path opacity="0.15" d="M11.9004 40.7523H8.54385C7.57706 40.7523 6.78601 41.5434 6.78601 42.5102V58.2426H10.1425V42.5102C10.1425 41.5434 10.9336 40.7523 11.9004 40.7523Z" fill="#440075"/>
</g>
<path d="M40.4122 33.6463C40.4122 34.6131 39.6212 35.4041 38.6545 35.4041H7.34507C6.37839 35.4041 5.58734 34.6131 5.58734 33.6463V11.4483C5.58734 10.4815 6.37839 9.69055 7.34507 9.69055H38.6545C39.6212 9.69055 40.4122 10.4815 40.4122 11.4483V33.6463Z" fill="#C5CCD3"/>
<g opacity="0.15">
<path opacity="0.15" d="M8.93728 33.6463V11.4483C8.93728 10.4815 9.72833 9.69055 10.6951 9.69055H7.34507C6.37839 9.69055 5.58734 10.4815 5.58734 11.4483V33.6465C5.58734 34.6133 6.37839 35.4042 7.34507 35.4042H10.6951C9.72833 35.4041 8.93728 34.6131 8.93728 33.6463Z" fill="#440075"/>
</g>
<path d="M36.2526 22.5802C36.2526 25.9335 33.5342 28.6515 30.1811 28.6515H15.8186C12.4653 28.6515 9.74701 25.9334 9.74701 22.5802C9.74701 19.2269 12.4653 16.5089 15.8186 16.5089H30.1811C33.5342 16.5089 36.2526 19.2269 36.2526 22.5802Z" fill="#135693"/>
<g opacity="0.15">
<path opacity="0.15" d="M13.1561 22.5802C13.1561 19.2269 15.8744 16.5089 19.2277 16.5089H15.8186C12.4653 16.5089 9.74701 19.2271 9.74701 22.5802C9.74701 25.9335 12.4653 28.6515 15.8186 28.6515H19.2277C15.8744 28.6515 13.1561 25.9334 13.1561 22.5802Z" fill="#440075"/>
</g>
<path d="M15.2123 24.953C16.5162 24.953 17.5731 23.8918 17.5731 22.5828C17.5731 21.2738 16.5162 20.2126 15.2123 20.2126C13.9084 20.2126 12.8514 21.2738 12.8514 22.5828C12.8514 23.8918 13.9084 24.953 15.2123 24.953Z" fill="#6BC1DD"/>
<path d="M30.8331 24.9517C32.137 24.9517 33.194 23.8905 33.194 22.5815C33.194 21.2725 32.137 20.2113 30.8331 20.2113C29.5293 20.2113 28.4723 21.2725 28.4723 22.5815C28.4723 23.8905 29.5293 24.9517 30.8331 24.9517Z" fill="#6BC1DD"/>
<path d="M33.4737 58.2415V48.0253C33.4737 47.3808 32.9463 46.8534 32.3018 46.8534H13.6984C13.0539 46.8534 12.5266 47.3808 12.5266 48.0253V58.2415H33.4737Z" fill="#135693"/>
<path d="M25.1093 58.2415V54.9465C25.1093 54.7531 24.9511 54.5948 24.7578 54.5948H21.2421C21.0489 54.5948 20.8906 54.7531 20.8906 54.9465V58.2415H25.1093Z" fill="#FFC502"/>
<path d="M18.078 50.5215H15.3828C14.9115 50.5215 14.5296 50.1396 14.5296 49.6683C14.5296 49.1971 14.9115 48.8152 15.3828 48.8152H18.078C18.5493 48.8152 18.9312 49.1971 18.9312 49.6683C18.9312 50.1395 18.5493 50.5215 18.078 50.5215Z" fill="#C5CCD3"/>
<path d="M16.9063 52.6028H15.3828C14.9115 52.6028 14.5297 52.2209 14.5297 51.7496C14.5297 51.2784 14.9115 50.8965 15.3828 50.8965H16.9063C17.3776 50.8965 17.7595 51.2784 17.7595 51.7496C17.7595 52.2209 17.3775 52.6028 16.9063 52.6028Z" fill="#C5CCD3"/>
<path d="M18.0781 54.6871H15.3828C14.9115 54.6871 14.5297 54.3052 14.5297 53.834C14.5297 53.3627 14.9115 52.9808 15.3828 52.9808H18.0781C18.5494 52.9808 18.9313 53.3627 18.9313 53.834C18.9313 54.3053 18.5494 54.6871 18.0781 54.6871Z" fill="#C5CCD3"/>
<path d="M16.5547 56.7688H15.3828C14.9115 56.7688 14.5297 56.3869 14.5297 55.9157C14.5297 55.4445 14.9115 55.0625 15.3828 55.0625H16.5547C17.026 55.0625 17.4079 55.4445 17.4079 55.9157C17.4079 56.3869 17.0259 56.7688 16.5547 56.7688Z" fill="#C5CCD3"/>
<path d="M30.2301 55.9129H28.1498C27.6562 55.9129 27.2562 55.5128 27.2562 55.0191C27.2562 54.5254 27.6563 54.1255 28.1498 54.1255H30.2301C30.7237 54.1255 31.1239 54.5256 31.1239 55.0191C31.1239 55.5129 30.7237 55.9129 30.2301 55.9129Z" fill="#E6E9ED"/>
<path d="M29.1906 52.8156C30.2272 52.8156 31.0675 51.9753 31.0675 50.9387C31.0675 49.9021 30.2272 49.0618 29.1906 49.0618C28.154 49.0618 27.3137 49.9021 27.3137 50.9387C27.3137 51.9753 28.154 52.8156 29.1906 52.8156Z" fill="#5DC647"/>
<path d="M25.1615 51.9214C25.1615 52.1196 24.9994 52.2815 24.8013 52.2815H21.199C21.0009 52.2815 20.8388 52.1196 20.8388 51.9214V49.9575C20.8388 49.7594 21.0009 49.5973 21.199 49.5973H24.8013C24.9994 49.5973 25.1615 49.7594 25.1615 49.9575V51.9214Z" fill="#6BC1DD"/>
</svg>
